<mxfile host="app.diagrams.net" agent="Mozilla/5.0 (Windows NT 10.0; Win64; x64) AppleWebKit/537.36 (KHTML, like Gecko) Chrome/132.0.0.0 Safari/537.36 Edg/132.0.0.0" version="26.0.11">
  <diagram name="Page-1" id="twlMFPdqtfMhhV3uWWkS">
    <mxGraphModel dx="1042" dy="565" grid="1" gridSize="10" guides="1" tooltips="1" connect="1" arrows="1" fold="1" page="1" pageScale="1" pageWidth="850" pageHeight="1100" math="0" shadow="0">
      <root>
        <mxCell id="0" />
        <mxCell id="1" parent="0" />
        <mxCell id="vozHhTUA0gxIrQGrkt-b-33" value="" style="rounded=0;whiteSpace=wrap;html=1;" vertex="1" parent="1">
          <mxGeometry x="200" width="450" height="60" as="geometry" />
        </mxCell>
        <mxCell id="vozHhTUA0gxIrQGrkt-b-32" value="" style="sketch=0;outlineConnect=0;fontColor=#232F3E;gradientColor=none;fillColor=#ED7100;strokeColor=none;dashed=0;verticalLabelPosition=bottom;verticalAlign=top;align=center;html=1;fontSize=12;fontStyle=0;aspect=fixed;pointerEvents=1;shape=mxgraph.aws4.container_registry_image;" vertex="1" parent="1">
          <mxGeometry x="230" y="6" width="48" height="48" as="geometry" />
        </mxCell>
        <mxCell id="vozHhTUA0gxIrQGrkt-b-34" value="" style="rounded=0;whiteSpace=wrap;html=1;" vertex="1" parent="1">
          <mxGeometry x="380" y="15" width="240" height="30" as="geometry" />
        </mxCell>
        <mxCell id="vozHhTUA0gxIrQGrkt-b-35" value="" style="endArrow=none;html=1;rounded=0;entryX=0.25;entryY=0;entryDx=0;entryDy=0;exitX=0.25;exitY=1;exitDx=0;exitDy=0;" edge="1" parent="1" source="vozHhTUA0gxIrQGrkt-b-34" target="vozHhTUA0gxIrQGrkt-b-34">
          <mxGeometry width="50" height="50" relative="1" as="geometry">
            <mxPoint x="400" y="190" as="sourcePoint" />
            <mxPoint x="450" y="140" as="targetPoint" />
          </mxGeometry>
        </mxCell>
        <mxCell id="vozHhTUA0gxIrQGrkt-b-36" value="" style="endArrow=none;html=1;rounded=0;entryX=0.5;entryY=0;entryDx=0;entryDy=0;exitX=0.5;exitY=1;exitDx=0;exitDy=0;" edge="1" parent="1" source="vozHhTUA0gxIrQGrkt-b-34" target="vozHhTUA0gxIrQGrkt-b-34">
          <mxGeometry width="50" height="50" relative="1" as="geometry">
            <mxPoint x="400" y="190" as="sourcePoint" />
            <mxPoint x="450" y="140" as="targetPoint" />
          </mxGeometry>
        </mxCell>
        <mxCell id="vozHhTUA0gxIrQGrkt-b-37" value="" style="endArrow=none;html=1;rounded=0;entryX=0.75;entryY=0;entryDx=0;entryDy=0;exitX=0.75;exitY=1;exitDx=0;exitDy=0;" edge="1" parent="1" source="vozHhTUA0gxIrQGrkt-b-34" target="vozHhTUA0gxIrQGrkt-b-34">
          <mxGeometry width="50" height="50" relative="1" as="geometry">
            <mxPoint x="400" y="190" as="sourcePoint" />
            <mxPoint x="450" y="140" as="targetPoint" />
          </mxGeometry>
        </mxCell>
        <mxCell id="vozHhTUA0gxIrQGrkt-b-38" value="Home" style="text;html=1;align=center;verticalAlign=middle;whiteSpace=wrap;rounded=0;" vertex="1" parent="1">
          <mxGeometry x="380" y="15" width="60" height="30" as="geometry" />
        </mxCell>
        <mxCell id="vozHhTUA0gxIrQGrkt-b-39" value="About" style="text;html=1;align=center;verticalAlign=middle;whiteSpace=wrap;rounded=0;" vertex="1" parent="1">
          <mxGeometry x="440" y="15" width="60" height="30" as="geometry" />
        </mxCell>
        <mxCell id="vozHhTUA0gxIrQGrkt-b-40" value="Contact" style="text;html=1;align=center;verticalAlign=middle;whiteSpace=wrap;rounded=0;" vertex="1" parent="1">
          <mxGeometry x="500" y="15" width="60" height="30" as="geometry" />
        </mxCell>
        <mxCell id="vozHhTUA0gxIrQGrkt-b-41" value="Trips" style="text;html=1;align=center;verticalAlign=middle;whiteSpace=wrap;rounded=0;" vertex="1" parent="1">
          <mxGeometry x="560" y="15" width="60" height="30" as="geometry" />
        </mxCell>
        <mxCell id="vozHhTUA0gxIrQGrkt-b-43" value="" style="rounded=0;whiteSpace=wrap;html=1;" vertex="1" parent="1">
          <mxGeometry x="440" y="80" width="210" height="160" as="geometry" />
        </mxCell>
        <mxCell id="vozHhTUA0gxIrQGrkt-b-55" value="" style="rounded=0;whiteSpace=wrap;html=1;" vertex="1" parent="1">
          <mxGeometry x="200" y="80" width="210" height="160" as="geometry" />
        </mxCell>
        <mxCell id="vozHhTUA0gxIrQGrkt-b-60" value="Adress" style="text;strokeColor=none;fillColor=none;align=left;verticalAlign=middle;spacingLeft=4;spacingRight=4;overflow=hidden;points=[[0,0.5],[1,0.5]];portConstraint=eastwest;rotatable=0;whiteSpace=wrap;html=1;" vertex="1" parent="1">
          <mxGeometry x="230" y="130" width="80" height="30" as="geometry" />
        </mxCell>
        <mxCell id="vozHhTUA0gxIrQGrkt-b-61" value="Phone #" style="text;strokeColor=none;fillColor=none;align=left;verticalAlign=middle;spacingLeft=4;spacingRight=4;overflow=hidden;points=[[0,0.5],[1,0.5]];portConstraint=eastwest;rotatable=0;whiteSpace=wrap;html=1;" vertex="1" parent="1">
          <mxGeometry x="230" y="160" width="80" height="30" as="geometry" />
        </mxCell>
        <mxCell id="vozHhTUA0gxIrQGrkt-b-62" value="Email" style="text;strokeColor=none;fillColor=none;align=left;verticalAlign=middle;spacingLeft=4;spacingRight=4;overflow=hidden;points=[[0,0.5],[1,0.5]];portConstraint=eastwest;rotatable=0;whiteSpace=wrap;html=1;" vertex="1" parent="1">
          <mxGeometry x="230" y="190" width="80" height="30" as="geometry" />
        </mxCell>
        <mxCell id="vozHhTUA0gxIrQGrkt-b-63" value="&lt;b&gt;White Water Rafting&lt;/b&gt;" style="text;html=1;align=center;verticalAlign=middle;whiteSpace=wrap;rounded=0;" vertex="1" parent="1">
          <mxGeometry x="200" y="80" width="210" height="30" as="geometry" />
        </mxCell>
        <mxCell id="vozHhTUA0gxIrQGrkt-b-64" value="" style="endArrow=none;html=1;rounded=0;exitX=0;exitY=1;exitDx=0;exitDy=0;entryX=1;entryY=1;entryDx=0;entryDy=0;" edge="1" parent="1" source="vozHhTUA0gxIrQGrkt-b-63" target="vozHhTUA0gxIrQGrkt-b-63">
          <mxGeometry width="50" height="50" relative="1" as="geometry">
            <mxPoint x="400" y="190" as="sourcePoint" />
            <mxPoint x="450" y="140" as="targetPoint" />
          </mxGeometry>
        </mxCell>
        <mxCell id="vozHhTUA0gxIrQGrkt-b-65" value="Map" style="html=1;whiteSpace=wrap;strokeColor=none;fillColor=#0079D6;labelPosition=center;verticalLabelPosition=middle;verticalAlign=top;align=center;fontSize=12;outlineConnect=0;spacingTop=-6;fontColor=#FFFFFF;sketch=0;shape=mxgraph.sitemap.map;" vertex="1" parent="1">
          <mxGeometry x="440" y="80" width="210" height="160" as="geometry" />
        </mxCell>
        <mxCell id="vozHhTUA0gxIrQGrkt-b-67" value="" style="rounded=0;whiteSpace=wrap;html=1;" vertex="1" parent="1">
          <mxGeometry x="200" y="260" width="450" height="400" as="geometry" />
        </mxCell>
        <mxCell id="vozHhTUA0gxIrQGrkt-b-69" value="&lt;h1&gt;&lt;font style=&quot;font-size: 20px;&quot;&gt;The Staff&lt;/font&gt;&lt;/h1&gt;" style="text;html=1;align=center;verticalAlign=middle;whiteSpace=wrap;rounded=0;fontStyle=1;fontSize=16;" vertex="1" parent="1">
          <mxGeometry x="200" y="260" width="100" height="40" as="geometry" />
        </mxCell>
        <mxCell id="vozHhTUA0gxIrQGrkt-b-70" value="" style="ellipse;whiteSpace=wrap;html=1;aspect=fixed;" vertex="1" parent="1">
          <mxGeometry x="210" y="310" width="80" height="80" as="geometry" />
        </mxCell>
        <mxCell id="vozHhTUA0gxIrQGrkt-b-71" value="" style="ellipse;whiteSpace=wrap;html=1;aspect=fixed;" vertex="1" parent="1">
          <mxGeometry x="210" y="430" width="80" height="80" as="geometry" />
        </mxCell>
        <mxCell id="vozHhTUA0gxIrQGrkt-b-72" value="" style="ellipse;whiteSpace=wrap;html=1;aspect=fixed;" vertex="1" parent="1">
          <mxGeometry x="210" y="550" width="80" height="80" as="geometry" />
        </mxCell>
        <mxCell id="vozHhTUA0gxIrQGrkt-b-73" value="" style="sketch=0;outlineConnect=0;fontColor=#232F3E;gradientColor=none;fillColor=#ED7100;strokeColor=none;dashed=0;verticalLabelPosition=bottom;verticalAlign=top;align=center;html=1;fontSize=12;fontStyle=0;aspect=fixed;pointerEvents=1;shape=mxgraph.aws4.container_registry_image;" vertex="1" parent="1">
          <mxGeometry x="226" y="326" width="48" height="48" as="geometry" />
        </mxCell>
        <mxCell id="vozHhTUA0gxIrQGrkt-b-74" value="" style="sketch=0;outlineConnect=0;fontColor=#232F3E;gradientColor=none;fillColor=#ED7100;strokeColor=none;dashed=0;verticalLabelPosition=bottom;verticalAlign=top;align=center;html=1;fontSize=12;fontStyle=0;aspect=fixed;pointerEvents=1;shape=mxgraph.aws4.container_registry_image;" vertex="1" parent="1">
          <mxGeometry x="226" y="446" width="48" height="48" as="geometry" />
        </mxCell>
        <mxCell id="vozHhTUA0gxIrQGrkt-b-75" value="" style="sketch=0;outlineConnect=0;fontColor=#232F3E;gradientColor=none;fillColor=#ED7100;strokeColor=none;dashed=0;verticalLabelPosition=bottom;verticalAlign=top;align=center;html=1;fontSize=12;fontStyle=0;aspect=fixed;pointerEvents=1;shape=mxgraph.aws4.container_registry_image;" vertex="1" parent="1">
          <mxGeometry x="226" y="566" width="48" height="48" as="geometry" />
        </mxCell>
        <mxCell id="vozHhTUA0gxIrQGrkt-b-76" value="&lt;h2 style=&quot;margin-top: 0px; line-height: 90%;&quot;&gt;&lt;font style=&quot;font-size: 16px; line-height: 90%;&quot;&gt;Employee 1&lt;/font&gt;&lt;/h2&gt;&lt;p&gt;Lorem ipsum dolor sit amet, consectetur adipisicing elit, sed do eiusmod tempor incididunt ut labore et dolore magna aliqua.&lt;/p&gt;" style="text;html=1;whiteSpace=wrap;overflow=hidden;rounded=0;spacing=2;" vertex="1" parent="1">
          <mxGeometry x="310" y="310" width="320" height="80" as="geometry" />
        </mxCell>
        <mxCell id="vozHhTUA0gxIrQGrkt-b-77" value="&lt;h1 style=&quot;margin-top: 0px; line-height: 90%;&quot;&gt;&lt;span style=&quot;background-color: transparent; color: light-dark(rgb(0, 0, 0), rgb(255, 255, 255)); font-size: 16px;&quot;&gt;Employee 2&lt;/span&gt;&lt;/h1&gt;&lt;p style=&quot;margin-top: 0px; line-height: 90%;&quot;&gt;&lt;span style=&quot;background-color: transparent; color: light-dark(rgb(0, 0, 0), rgb(255, 255, 255)); font-size: 12px; font-weight: normal;&quot;&gt;Lorem ipsum dolor sit amet, consectetur adipisicing elit, sed do eiusmod tempor incididunt ut labore et dolore magna aliqua.&lt;/span&gt;&lt;/p&gt;" style="text;html=1;whiteSpace=wrap;overflow=hidden;rounded=0;spacing=2;" vertex="1" parent="1">
          <mxGeometry x="310" y="430" width="320" height="80" as="geometry" />
        </mxCell>
        <mxCell id="vozHhTUA0gxIrQGrkt-b-78" value="&lt;h2 style=&quot;margin-top: 0px; line-height: 90%;&quot;&gt;&lt;span style=&quot;font-size: 16px;&quot;&gt;Employee 3&lt;/span&gt;&lt;/h2&gt;&lt;p&gt;Lorem ipsum dolor sit amet, consectetur adipisicing elit, sed do eiusmod tempor incididunt ut labore et dolore magna aliqua.&lt;/p&gt;" style="text;html=1;whiteSpace=wrap;overflow=hidden;rounded=0;spacing=2;" vertex="1" parent="1">
          <mxGeometry x="310" y="550" width="320" height="80" as="geometry" />
        </mxCell>
        <mxCell id="vozHhTUA0gxIrQGrkt-b-80" value="" style="rounded=0;whiteSpace=wrap;html=1;" vertex="1" parent="1">
          <mxGeometry x="200" y="680" width="450" height="400" as="geometry" />
        </mxCell>
        <mxCell id="vozHhTUA0gxIrQGrkt-b-81" value="" style="sketch=0;pointerEvents=1;shadow=0;dashed=0;html=1;strokeColor=none;fillColor=#505050;labelPosition=center;verticalLabelPosition=bottom;verticalAlign=top;outlineConnect=0;align=center;shape=mxgraph.office.concepts.form;" vertex="1" parent="1">
          <mxGeometry x="590" y="690.5" width="56" height="49" as="geometry" />
        </mxCell>
        <mxCell id="vozHhTUA0gxIrQGrkt-b-101" value="Username:" style="text;html=1;align=right;verticalAlign=middle;whiteSpace=wrap;rounded=0;" vertex="1" parent="1">
          <mxGeometry x="220" y="709.5" width="60" height="30" as="geometry" />
        </mxCell>
        <mxCell id="vozHhTUA0gxIrQGrkt-b-102" value="Email:" style="text;html=1;align=right;verticalAlign=middle;whiteSpace=wrap;rounded=0;" vertex="1" parent="1">
          <mxGeometry x="220" y="739.5" width="60" height="30" as="geometry" />
        </mxCell>
        <mxCell id="vozHhTUA0gxIrQGrkt-b-103" value="" style="rounded=1;whiteSpace=wrap;html=1;" vertex="1" parent="1">
          <mxGeometry x="284" y="719" width="136" height="20.5" as="geometry" />
        </mxCell>
        <mxCell id="vozHhTUA0gxIrQGrkt-b-104" value="" style="rounded=1;whiteSpace=wrap;html=1;" vertex="1" parent="1">
          <mxGeometry x="284" y="744.25" width="136" height="20.5" as="geometry" />
        </mxCell>
        <mxCell id="vozHhTUA0gxIrQGrkt-b-106" value="Select type of request" style="text;html=1;align=center;verticalAlign=middle;whiteSpace=wrap;rounded=0;fontStyle=1;fontSize=14;" vertex="1" parent="1">
          <mxGeometry x="210" y="769.5" width="160" height="30" as="geometry" />
        </mxCell>
        <mxCell id="vozHhTUA0gxIrQGrkt-b-107" value="&lt;font style=&quot;font-size: 12px;&quot;&gt;General Inquiry&lt;/font&gt;" style="shape=ellipse;fillColor=#eeeeee;strokeColor=#999999;gradientColor=#cccccc;html=1;align=left;spacingLeft=4;fontSize=17;fontColor=#666666;labelPosition=right;shadow=0;" vertex="1" parent="1">
          <mxGeometry x="220" y="799.5" width="15" height="15" as="geometry" />
        </mxCell>
        <mxCell id="vozHhTUA0gxIrQGrkt-b-108" value="&lt;font style=&quot;font-size: 12px;&quot;&gt;Reservation Question&lt;/font&gt;" style="shape=ellipse;fillColor=#eeeeee;strokeColor=#999999;gradientColor=#cccccc;html=1;align=left;spacingLeft=4;fontSize=17;fontColor=#666666;labelPosition=right;shadow=0;" vertex="1" parent="1">
          <mxGeometry x="220" y="820" width="15" height="15" as="geometry" />
        </mxCell>
        <mxCell id="vozHhTUA0gxIrQGrkt-b-109" value="&lt;p&gt;&lt;font style=&quot;font-size: 12px;&quot;&gt;Website Suggestion&lt;/font&gt;&lt;/p&gt;" style="shape=ellipse;fillColor=#eeeeee;strokeColor=#999999;gradientColor=#cccccc;html=1;align=left;spacingLeft=4;fontSize=17;fontColor=#666666;labelPosition=right;shadow=0;" vertex="1" parent="1">
          <mxGeometry x="221" y="840" width="15" height="15" as="geometry" />
        </mxCell>
        <mxCell id="vozHhTUA0gxIrQGrkt-b-111" value="Insert Text" style="text;html=1;align=center;verticalAlign=middle;whiteSpace=wrap;rounded=0;strokeColor=default;dashed=1;" vertex="1" parent="1">
          <mxGeometry x="227" y="870" width="396" height="90" as="geometry" />
        </mxCell>
        <mxCell id="vozHhTUA0gxIrQGrkt-b-112" value="&lt;font style=&quot;font-size: 12px;&quot;&gt;&lt;i&gt;Subscribe to monthly newsletter&lt;/i&gt;&lt;/font&gt;" style="strokeWidth=1;shadow=0;dashed=0;align=center;html=1;shape=mxgraph.mockup.forms.rrect;rSize=0;fillColor=#eeeeee;strokeColor=#999999;gradientColor=#cccccc;align=left;spacingLeft=4;fontSize=17;fontColor=#666666;labelPosition=right;" vertex="1" parent="1">
          <mxGeometry x="220" y="980" width="15" height="15" as="geometry" />
        </mxCell>
        <mxCell id="vozHhTUA0gxIrQGrkt-b-114" value="Submit" style="rounded=1;fillColor=#0057D8;align=center;strokeColor=none;html=1;whiteSpace=wrap;fontColor=#ffffff;fontSize=12;sketch=0;" vertex="1" parent="1">
          <mxGeometry x="336" y="1020" width="180" height="33" as="geometry" />
        </mxCell>
        <mxCell id="vozHhTUA0gxIrQGrkt-b-116" value="&lt;h2&gt;Contact Form&lt;/h2&gt;" style="text;html=1;align=center;verticalAlign=middle;whiteSpace=wrap;rounded=0;fontStyle=1;fontSize=14;" vertex="1" parent="1">
          <mxGeometry x="200" y="660" width="160" height="70" as="geometry" />
        </mxCell>
      </root>
    </mxGraphModel>
  </diagram>
</mxfile>
